<?xml version="1.0" encoding="UTF-8"?>
<svg width="19px" height="23px" viewBox="0 0 19 23" version="1.1" xmlns="http://www.w3.org/2000/svg" xmlns:xlink="http://www.w3.org/1999/xlink">
    <!-- Generator: Sketch 45.1 (43504) - http://www.bohemiancoding.com/sketch -->
    <title>Page 1</title>
    <desc>Created with Sketch.</desc>
    <defs></defs>
    <g id="VC" stroke="none" stroke-width="1" fill="none" fill-rule="evenodd">
        <g id="Desktop" transform="translate(-1871.000000, -372.000000)" stroke="#2F3132" stroke-width="2">
            <g id="sticky-ctas" transform="translate(1747.000000, 273.000000)">
                <g id="3" transform="translate(113.000000, 90.000000)">
                    <g id="Page-1" transform="translate(12.000000, 10.000000)">
                        <path d="M2.4264,14.1421 C-0.8086,10.9071 -0.8086,5.6611 2.4264,2.4261 C5.6614,-0.8089 10.9074,-0.8089 14.1424,2.4261 C17.3774,5.6611 17.3774,10.9071 14.1424,14.1421 L8.2844,20.0001 L2.4264,14.1421 Z" id="Stroke-1"></path>
                        <path d="M11.2647,8.1885 C11.2647,6.5315 9.9217,5.1885 8.2647,5.1885 C6.6077,5.1885 5.2647,6.5315 5.2647,8.1885 C5.2647,9.8455 6.6077,11.1885 8.2647,11.1885 C9.9217,11.1885 11.2647,9.8455 11.2647,8.1885 Z" id="Stroke-3"></path>
                    </g>
                </g>
            </g>
        </g>
    </g>
</svg>