<?xml version="1.0" encoding="UTF-8"?>
<svg width="22px" height="23px" viewBox="0 0 22 23" version="1.1" xmlns="http://www.w3.org/2000/svg" xmlns:xlink="http://www.w3.org/1999/xlink">
    <!-- Generator: Sketch 45.1 (43504) - http://www.bohemiancoding.com/sketch -->
    <title>Page 1</title>
    <desc>Created with Sketch.</desc>
    <defs></defs>
    <g id="VC" stroke="none" stroke-width="1" fill="none" fill-rule="evenodd">
        <g id="Desktop" transform="translate(-1869.000000, -327.000000)">
            <g id="sticky-ctas" transform="translate(1747.000000, 273.000000)">
                <g id="2" transform="translate(113.000000, 45.000000)">
                    <g id="Page-1" transform="translate(10.000000, 9.000000)">
                        <polygon id="Fill-1" fill="#2F3132" points="1.9997 -0.0004 1.9997 9.9026 4.0007 9.9026 4.0007 1.9476 15.9997 1.9476 15.9997 10.0006 17.9997 10.0006 17.9997 -0.0004"></polygon>
                        <polygon id="Fill-2" fill="#2F3132" points="6 6 14 6 14 4 6 4"></polygon>
                        <polygon id="Fill-3" fill="#2F3132" points="6 10 14 10 14 8 6 8"></polygon>
                        <polygon id="Fill-4" fill="#2F3132" points="6 10 14 10 14 8 6 8"></polygon>
                        <g id="Group-13" transform="translate(0.000000, 10.000000)" stroke-width="2" stroke="#2F3132">
                            <polyline id="Stroke-5" points="0 0.5833 0 12.0003 20 12.0003 20 0.5833"></polyline>
                            <polyline id="Stroke-7" points="0 0 0 1.401 10 7.7 20 1.401 20 0"></polyline>
                            <path d="M0,11 L6.389,4.611" id="Stroke-9"></path>
                            <path d="M20,11 L13.611,4.611" id="Stroke-11"></path>
                        </g>
                    </g>
                </g>
            </g>
        </g>
    </g>
</svg>